<svg width="64" height="64" viewBox="0 0 64 64" fill="none" xmlns="http://www.w3.org/2000/svg">
<circle cx="32" cy="32" r="32" fill="#079AAE"/>
<path d="M31.4986 20.4995C29.1252 20.4995 26.8052 21.2032 24.8318 22.5218C22.8584 23.8404 21.3203 25.7145 20.412 27.9073C19.5038 30.1 19.2662 32.5128 19.7292 34.8405C20.1922 37.1683 21.3351 39.3065 23.0133 40.9847C24.6916 42.663 26.8297 43.8059 29.1575 44.2689C31.4853 44.7319 33.8981 44.4943 36.0908 43.586C38.2835 42.6778 40.1577 41.1397 41.4762 39.1663C42.7948 37.1929 43.4986 34.8728 43.4986 32.4995C43.495 29.318 42.2295 26.2678 39.9799 24.0182C37.7302 21.7685 34.6801 20.5031 31.4986 20.4995ZM31.4986 42.4995C29.5208 42.4995 27.5874 41.913 25.9429 40.8142C24.2984 39.7153 23.0167 38.1536 22.2598 36.3263C21.5029 34.499 21.3049 32.4884 21.6908 30.5486C22.0766 28.6087 23.029 26.8269 24.4275 25.4284C25.8261 24.0299 27.6079 23.0775 29.5477 22.6916C31.4875 22.3058 33.4982 22.5038 35.3254 23.2607C37.1527 24.0175 38.7145 25.2993 39.8133 26.9438C40.9121 28.5882 41.4986 30.5216 41.4986 32.4995C41.4956 35.1507 40.4411 37.6925 38.5664 39.5672C36.6917 41.442 34.1499 42.4965 31.4986 42.4995ZM23.2061 20.207L19.2061 24.207C19.0185 24.3946 18.764 24.5 18.4986 24.5C18.2332 24.5 17.9787 24.3946 17.7911 24.207C17.6035 24.0193 17.498 23.7648 17.498 23.4995C17.498 23.2341 17.6035 22.9796 17.7911 22.792L21.7911 18.792C21.9787 18.6043 22.2332 18.4989 22.4986 18.4989C22.764 18.4989 23.0185 18.6043 23.2061 18.792C23.3937 18.9796 23.4992 19.2341 23.4992 19.4995C23.4992 19.7648 23.3937 20.0193 23.2061 20.207ZM45.2061 24.207C45.1132 24.2999 45.0029 24.3737 44.8815 24.424C44.7601 24.4743 44.63 24.5002 44.4986 24.5002C44.3672 24.5002 44.2371 24.4743 44.1157 24.424C43.9943 24.3737 43.884 24.2999 43.7911 24.207L39.7911 20.207C39.6035 20.0193 39.498 19.7648 39.498 19.4995C39.498 19.2341 39.6035 18.9796 39.7911 18.792C39.9787 18.6043 40.2332 18.4989 40.4986 18.4989C40.764 18.4989 41.0185 18.6043 41.2061 18.792L45.2061 22.792C45.2991 22.8848 45.3728 22.9951 45.4232 23.1165C45.4735 23.2379 45.4994 23.368 45.4994 23.4995C45.4994 23.6309 45.4735 23.761 45.4232 23.8824C45.3728 24.0038 45.2991 24.1141 45.2061 24.207ZM38.4986 31.4995C38.7638 31.4995 39.0182 31.6048 39.2057 31.7923C39.3932 31.9799 39.4986 32.2342 39.4986 32.4995C39.4986 32.7647 39.3932 33.019 39.2057 33.2066C39.0182 33.3941 38.7638 33.4995 38.4986 33.4995H31.4986C31.2334 33.4995 30.979 33.3941 30.7915 33.2066C30.604 33.019 30.4986 32.7647 30.4986 32.4995V25.4995C30.4986 25.2342 30.604 24.9799 30.7915 24.7924C30.979 24.6048 31.2334 24.4995 31.4986 24.4995C31.7638 24.4995 32.0182 24.6048 32.2057 24.7924C32.3932 24.9799 32.4986 25.2342 32.4986 25.4995V31.4995H38.4986Z" fill="white"/>
</svg>
