<svg width="64" height="64" viewBox="0 0 64 64" fill="none" xmlns="http://www.w3.org/2000/svg">
<circle cx="32" cy="32" r="32" fill="#079AAE"/>
<path d="M46.1954 37.3993L33.6654 27.9993L36.5979 25.7993C36.7224 25.7063 36.8234 25.5855 36.8931 25.4467C36.9627 25.3078 36.999 25.1546 36.9992 24.9993C36.9992 23.6732 36.4724 22.4014 35.5347 21.4637C34.597 20.5261 33.3253 19.9993 31.9992 19.9993C30.6731 19.9993 29.4013 20.5261 28.4637 21.4637C27.526 22.4014 26.9992 23.6732 26.9992 24.9993C26.9992 25.2645 27.1045 25.5188 27.2921 25.7064C27.4796 25.8939 27.734 25.9993 27.9992 25.9993C28.2644 25.9993 28.5188 25.8939 28.7063 25.7064C28.8938 25.5188 28.9992 25.2645 28.9992 24.9993C29.0012 24.246 29.2865 23.5211 29.7984 22.9686C30.3103 22.416 31.0113 22.0762 31.7621 22.0167C32.513 21.9572 33.2588 22.1823 33.8513 22.6473C34.4439 23.1124 34.8398 23.7833 34.9604 24.5268L31.4167 27.1855L31.3817 27.2118L17.8029 37.3993C17.4674 37.6509 17.2194 38.0017 17.0942 38.402C16.9689 38.8023 16.9727 39.2319 17.105 39.6299C17.2372 40.028 17.4913 40.3744 17.8312 40.6201C18.1712 40.8658 18.5797 40.9985 18.9992 40.9993H44.9992C45.419 40.9993 45.8281 40.8672 46.1686 40.6218C46.5091 40.3763 46.7638 40.0299 46.8966 39.6317C47.0293 39.2335 47.0334 38.8036 46.9082 38.4029C46.7831 38.0023 46.535 37.6511 46.1992 37.3993H46.1954ZM44.9992 38.9993H18.9992L31.9992 29.2493L44.9992 38.9993Z" fill="white"/>
</svg>
