<svg width="64" height="64" viewBox="0 0 64 64" fill="none" xmlns="http://www.w3.org/2000/svg">
<circle cx="32" cy="32" r="32" fill="#079AAE"/>
<g clip-path="url(#clip0_349_95)">
<path d="M47.9265 30.6243L46.1765 26.2493C46.0281 25.8791 45.7719 25.5621 45.4411 25.3392C45.1104 25.1163 44.7203 24.9979 44.3215 24.9993H39.999V23.9993C39.999 23.7341 39.8937 23.4797 39.7061 23.2922C39.5186 23.1046 39.2642 22.9993 38.999 22.9993H19.999C19.4686 22.9993 18.9599 23.21 18.5848 23.5851C18.2097 23.9601 17.999 24.4688 17.999 24.9993V38.9993C17.999 39.5297 18.2097 40.0384 18.5848 40.4135C18.9599 40.7886 19.4686 40.9993 19.999 40.9993H22.124C22.3443 41.8597 22.8447 42.6223 23.5463 43.1669C24.2479 43.7115 25.1109 44.0071 25.999 44.0071C26.8872 44.0071 27.7501 43.7115 28.4517 43.1669C29.1533 42.6223 29.6537 41.8597 29.874 40.9993H36.124C36.3443 41.8597 36.8447 42.6223 37.5463 43.1669C38.2479 43.7115 39.1109 44.0071 39.999 44.0071C40.8872 44.0071 41.7501 43.7115 42.4517 43.1669C43.1533 42.6223 43.6537 41.8597 43.874 40.9993H45.999C46.5295 40.9993 47.0382 40.7886 47.4132 40.4135C47.7883 40.0384 47.999 39.5297 47.999 38.9993V30.9993C47.9994 30.8708 47.9747 30.7434 47.9265 30.6243ZM39.999 26.9993H44.3215L45.5215 29.9993H39.999V26.9993ZM19.999 24.9993H37.999V32.9993H19.999V24.9993ZM25.999 41.9993C25.6035 41.9993 25.2168 41.882 24.8879 41.6622C24.559 41.4424 24.3026 41.1301 24.1513 40.7646C23.9999 40.3992 23.9603 39.997 24.0375 39.6091C24.1146 39.2211 24.3051 38.8648 24.5848 38.5851C24.8645 38.3053 25.2209 38.1149 25.6088 38.0377C25.9968 37.9605 26.3989 38.0001 26.7644 38.1515C27.1298 38.3029 27.4422 38.5592 27.662 38.8881C27.8817 39.217 27.999 39.6037 27.999 39.9993C27.999 40.5297 27.7883 41.0384 27.4132 41.4135C27.0382 41.7886 26.5295 41.9993 25.999 41.9993ZM36.124 38.9993H29.874C29.6537 38.1389 29.1533 37.3762 28.4517 36.8316C27.7501 36.287 26.8872 35.9914 25.999 35.9914C25.1109 35.9914 24.2479 36.287 23.5463 36.8316C22.8447 37.3762 22.3443 38.1389 22.124 38.9993H19.999V34.9993H37.999V36.538C37.5392 36.8038 37.1367 37.1582 36.8148 37.5807C36.493 38.0032 36.2582 38.4854 36.124 38.9993ZM39.999 41.9993C39.6035 41.9993 39.2168 41.882 38.8879 41.6622C38.559 41.4424 38.3026 41.1301 38.1513 40.7646C37.9999 40.3992 37.9603 39.997 38.0375 39.6091C38.1146 39.2211 38.3051 38.8648 38.5848 38.5851C38.8645 38.3053 39.2209 38.1149 39.6088 38.0377C39.9968 37.9605 40.3989 38.0001 40.7644 38.1515C41.1298 38.3029 41.4422 38.5592 41.662 38.8881C41.8817 39.217 41.999 39.6037 41.999 39.9993C41.999 40.5297 41.7883 41.0384 41.4132 41.4135C41.0382 41.7886 40.5295 41.9993 39.999 41.9993ZM45.999 38.9993H43.874C43.6511 38.1409 43.1497 37.3808 42.4485 36.8379C41.7473 36.2951 40.8858 36.0001 39.999 35.9993V31.9993H45.999V38.9993Z" fill="white"/>
</g>
<defs>
<clipPath id="clip0_349_95">
<rect width="32" height="32" fill="white" transform="translate(15.999 15.9993)"/>
</clipPath>
</defs>
</svg>
