<svg width="64" height="64" viewBox="0 0 64 64" fill="none" xmlns="http://www.w3.org/2000/svg">
<circle cx="32" cy="32" r="32" fill="#079AAE"/>
<path d="M42 19.9999H22C21.4696 19.9999 20.9609 20.2107 20.5858 20.5857C20.2107 20.9608 20 21.4695 20 21.9999V41.9999C20 42.5304 20.2107 43.0391 20.5858 43.4142C20.9609 43.7892 21.4696 43.9999 22 43.9999H42C42.5304 43.9999 43.0391 43.7892 43.4142 43.4142C43.7893 43.0391 44 42.5304 44 41.9999V21.9999C44 21.4695 43.7893 20.9608 43.4142 20.5857C43.0391 20.2107 42.5304 19.9999 42 19.9999ZM42 41.9999H22V21.9999H42V41.9999ZM32 23.9999C30.4177 23.9999 28.871 24.4691 27.5554 25.3482C26.2398 26.2272 25.2145 27.4767 24.609 28.9385C24.0035 30.4003 23.845 32.0088 24.1537 33.5607C24.4624 35.1125 25.2243 36.538 26.3431 37.6568C27.462 38.7756 28.8874 39.5375 30.4393 39.8462C31.9911 40.1549 33.5997 39.9965 35.0615 39.391C36.5233 38.7855 37.7727 37.7601 38.6518 36.4445C39.5308 35.1289 40 33.5822 40 31.9999C39.9977 29.8789 39.1541 27.8454 37.6543 26.3456C36.1545 24.8459 34.121 24.0023 32 23.9999ZM32 37.9999C30.8133 37.9999 29.6533 37.648 28.6666 36.9888C27.6799 36.3295 26.9108 35.3924 26.4567 34.296C26.0026 33.1997 25.8838 31.9933 26.1153 30.8294C26.3468 29.6655 26.9182 28.5964 27.7574 27.7573C28.5965 26.9182 29.6656 26.3467 30.8295 26.1152C31.9933 25.8837 33.1997 26.0025 34.2961 26.4567C35.3925 26.9108 36.3295 27.6798 36.9888 28.6665C37.6481 29.6532 38 30.8133 38 31.9999C37.9983 33.5907 37.3657 35.1159 36.2408 36.2408C35.116 37.3656 33.5908 37.9983 32 37.9999ZM41 24.4999C41 24.7966 40.912 25.0866 40.7472 25.3333C40.5824 25.58 40.3481 25.7722 40.074 25.8858C39.7999 25.9993 39.4983 26.029 39.2074 25.9711C38.9164 25.9132 38.6491 25.7704 38.4393 25.5606C38.2296 25.3508 38.0867 25.0835 38.0288 24.7926C37.9709 24.5016 38.0007 24.2 38.1142 23.9259C38.2277 23.6518 38.42 23.4176 38.6666 23.2527C38.9133 23.0879 39.2033 22.9999 39.5 22.9999C39.8978 22.9999 40.2794 23.158 40.5607 23.4393C40.842 23.7206 41 24.1021 41 24.4999ZM31.7075 30.7074L29.7075 32.7074C29.5199 32.8951 29.2654 33.0005 29 33.0005C28.7346 33.0005 28.4801 32.8951 28.2925 32.7074C28.1049 32.5198 27.9994 32.2653 27.9994 31.9999C27.9994 31.7346 28.1049 31.4801 28.2925 31.2924L30.2925 29.2924C30.4801 29.1048 30.7346 28.9994 31 28.9994C31.2654 28.9994 31.5199 29.1048 31.7075 29.2924C31.8951 29.4801 32.0006 29.7346 32.0006 29.9999C32.0006 30.2653 31.8951 30.5198 31.7075 30.7074ZM35.7075 30.2924C35.8005 30.3853 35.8742 30.4956 35.9246 30.617C35.9749 30.7384 36.0008 30.8685 36.0008 30.9999C36.0008 31.1314 35.9749 31.2615 35.9246 31.3829C35.8742 31.5043 35.8005 31.6146 35.7075 31.7074L31.7075 35.7074C31.6146 35.8003 31.5043 35.874 31.3829 35.9243C31.2615 35.9746 31.1314 36.0005 31 36.0005C30.8686 36.0005 30.7385 35.9746 30.6171 35.9243C30.4957 35.874 30.3854 35.8003 30.2925 35.7074C30.1996 35.6145 30.1259 35.5042 30.0756 35.3828C30.0253 35.2614 29.9994 35.1313 29.9994 34.9999C29.9994 34.8685 30.0253 34.7384 30.0756 34.617C30.1259 34.4956 30.1996 34.3853 30.2925 34.2924L34.2925 30.2924C34.3854 30.1995 34.4957 30.1257 34.6171 30.0754C34.7385 30.0251 34.8686 29.9992 35 29.9992C35.1314 29.9992 35.2615 30.0251 35.3829 30.0754C35.5043 30.1257 35.6146 30.1995 35.7075 30.2924Z" fill="white"/>
</svg>
