<svg width="97" height="50" viewBox="0 0 97 50" fill="none" xmlns="http://www.w3.org/2000/svg">
<g clip-path="url(#clip0_349_131)">
<path d="M12.3275 32.4888C12.3275 28.3684 9.67544 25.9723 6.35316 25.9723C4.92522 25.9723 3.73033 26.3814 2.73948 27.1411V26.1184L0 26.2353V44.4405H2.73948V38.6837C3.55542 39.0636 4.54636 39.239 5.74114 39.239C9.58806 39.239 12.3275 36.4045 12.3275 32.4888ZM9.47149 32.5472C9.47149 35.2356 7.69372 36.872 5.30405 36.872C4.34233 36.872 3.3806 36.6675 2.73948 36.3752V29.2744C3.5263 28.6607 4.54636 28.3392 5.59545 28.3392C7.92687 28.3392 9.47149 29.9172 9.47149 32.5472Z" fill="#373F51"/>
<path d="M22.1196 26.1184C21.9156 26.0307 21.5076 25.9723 21.1579 25.9723C19.7882 25.9723 18.4476 26.6151 17.3693 27.8425V26.1184L14.6299 26.2353V39.0344H17.3693V30.0633C18.2727 29.1283 19.4676 28.5146 20.7207 28.5146C21.1579 28.5146 21.7407 28.6314 22.0321 28.7483L22.1196 26.1184Z" fill="#373F51"/>
<path d="M33.2227 20.5954L29.8713 20.5078L27.569 24.6572H29.8129L33.2227 20.5954ZM34.4467 39.0344V30.7938C34.4467 27.4333 32.4359 25.9722 28.8512 25.9722C27.1027 25.9722 25.4707 26.3229 24.3341 26.9366L24.4507 29.3912C25.3832 28.8068 26.957 28.3684 28.5016 28.3684C30.6872 28.3684 31.7946 29.1282 31.7946 30.9691V32.1672C31.0369 31.8166 29.609 31.5536 28.385 31.5536C25.2667 31.5536 23.2559 32.8686 23.2559 35.4693C23.2559 37.8363 24.8296 39.239 27.6856 39.239C29.3466 39.239 30.833 38.6837 31.853 37.9531V39.0344H34.4467ZM31.7946 36.346C31.0661 36.9012 29.7256 37.3687 28.5307 37.3687C26.9861 37.3687 25.9952 36.8135 25.9952 35.4401C25.9952 33.9498 27.1027 33.3362 28.9678 33.3362C29.9586 33.3362 31.0661 33.5406 31.7946 33.9205V36.346Z" fill="#373F51"/>
<path d="M49.0181 20.5078L46.3078 20.6539V26.5274C45.4918 26.1475 44.3843 25.9722 43.3352 25.9722C39.4009 25.9722 36.7197 28.7191 36.7197 32.7225C36.7197 36.8135 39.4301 39.239 42.6941 39.239C44.0346 39.239 45.2877 38.8591 46.3078 38.0992V39.0344H49.0181V20.5078ZM46.3078 28.8652V35.9369C45.4626 36.5797 44.4718 36.8719 43.3644 36.8719C41.1203 36.8719 39.5466 35.294 39.5466 32.664C39.5466 29.9756 41.2952 28.3392 43.714 28.3392C44.6175 28.3392 45.6666 28.573 46.3078 28.8652Z" fill="#373F51"/>
<path d="M63.1232 33.2485C63.2107 32.6932 63.2398 31.992 63.2398 31.4952C63.2398 28.1055 60.8793 25.9723 57.6153 25.9723C54.0307 25.9723 51.3496 28.573 51.3496 32.4888C51.3496 36.6382 54.1473 39.239 58.781 39.239C60.3256 39.239 62.2489 38.8006 63.2398 38.0701L63.1232 35.6446C62.1033 36.3752 60.413 36.8428 58.9559 36.8428C56.2455 36.8428 54.497 35.4694 54.2056 33.2485H63.1232ZM57.6153 27.9886C59.4513 27.9886 60.6753 29.2744 60.6753 31.1153C60.6753 31.2614 60.6753 31.4659 60.6461 31.5828H54.1181C54.3222 29.3913 55.6919 27.9886 57.6153 27.9886Z" fill="#373F51"/>
<path d="M68.5734 20.5078L65.834 20.6539V39.0344H68.5734V20.5078Z" fill="#373F51"/>
<path d="M83.349 39.0344V30.5601C83.349 27.3749 81.6004 25.9723 78.861 25.9723C77.3747 25.9723 75.9176 26.4399 74.5187 27.4918V26.1184L71.7793 26.2353V39.0344H74.5187V29.5958C75.5679 28.8945 76.821 28.3977 77.9576 28.3977C79.6479 28.3977 80.6096 29.2451 80.6096 31.1445V39.0344H83.349Z" fill="#373F51"/>
<path d="M96.8412 39.0344V30.7939C96.8412 27.4334 94.8304 25.9723 91.2458 25.9723C89.4972 25.9723 87.8652 26.323 86.7287 26.9366L86.8453 29.3913C87.7778 28.8068 89.3515 28.3684 90.8961 28.3684C93.0818 28.3684 94.1892 29.1283 94.1892 30.9692V32.1673C93.4315 31.8166 92.0036 31.5536 90.7796 31.5536C87.6612 31.5536 85.6504 32.8686 85.6504 35.4694C85.6504 37.8363 87.2241 39.239 90.0801 39.239C91.7412 39.239 93.2276 38.6837 94.2475 37.9532V39.0344H96.8412ZM94.1892 36.346C93.4606 36.9013 92.1201 37.3687 90.9253 37.3687C89.3806 37.3687 88.3898 36.8136 88.3898 35.4402C88.3898 33.9499 89.4972 33.3362 91.3623 33.3362C92.3532 33.3362 93.4606 33.5407 94.1892 33.9206V36.346Z" fill="#373F51"/>
<path d="M27.4583 45.3638H26.6197L25.3545 46.8276C25.085 47.1504 24.8005 47.5258 24.6058 47.7886H24.5758V45.3638H23.8496V49.823H24.5758V48.5618L25.1598 47.9087L26.6347 49.823H27.5256L25.6839 47.3982L27.4583 45.3638Z" fill="#373F51"/>
<path d="M33.5748 46.7976C33.5748 45.8742 32.901 45.3638 31.8154 45.3638H30.3779V49.823H31.1041V48.2015H31.9052L33.0058 49.823H33.8593L32.624 48.0288C33.1705 47.8786 33.5748 47.4432 33.5748 46.7976ZM32.8411 46.7976C32.8411 47.3832 32.3994 47.6234 31.778 47.6234H31.1041V45.9718H31.778C32.3994 45.9718 32.8411 46.2196 32.8411 46.7976Z" fill="#373F51"/>
<path d="M40.3059 45.3638H39.4674L38.2021 46.8276C37.9326 47.1504 37.6481 47.5258 37.4534 47.7886H37.4235V45.3638H36.6973V49.823H37.4235V48.5618L38.0074 47.9087L39.4823 49.823H40.3733L38.5315 47.3982L40.3059 45.3638Z" fill="#373F51"/>
<path d="M44.9101 45.3113C43.5775 45.3113 42.6191 46.2797 42.6191 47.5934C42.6191 48.9072 43.5775 49.8756 44.9101 49.8756C46.2502 49.8756 47.2086 48.9072 47.2086 47.5934C47.2086 46.2797 46.2502 45.3113 44.9101 45.3113ZM44.9101 49.2225C44.0042 49.2225 43.3753 48.5168 43.3753 47.5934C43.3753 46.6551 44.0042 45.9644 44.9101 45.9644C45.8235 45.9644 46.4524 46.6701 46.4524 47.5934C46.4524 48.5318 45.8235 49.2225 44.9101 49.2225Z" fill="#373F51"/>
<path d="M53.8645 45.3638H53.1607V48.5918H53.1308C53.0484 48.4417 52.9361 48.269 52.8088 48.0963L50.8548 45.3638H50.1436V49.823H50.8398V46.4898H50.8698C50.9521 46.64 51.0644 46.8201 51.1917 46.9928L53.2206 49.823H53.8645V45.3638Z" fill="#373F51"/>
<path d="M59.082 45.3113C57.7493 45.3113 56.791 46.2797 56.791 47.5934C56.791 48.9072 57.7493 49.8756 59.082 49.8756C60.4221 49.8756 61.3804 48.9072 61.3804 47.5934C61.3804 46.2797 60.4221 45.3113 59.082 45.3113ZM59.082 49.2225C58.1761 49.2225 57.5472 48.5168 57.5472 47.5934C57.5472 46.6551 58.1761 45.9644 59.082 45.9644C59.9954 45.9644 60.6243 46.6701 60.6243 47.5934C60.6243 48.5318 59.9954 49.2225 59.082 49.2225Z" fill="#373F51"/>
<path d="M66.5914 44.4404H66.0449L65.6555 44.8533L65.2662 44.4404H64.7197L65.154 45.0635H66.1572L66.5914 44.4404ZM66.9807 45.5515C66.6738 45.3938 66.1722 45.3112 65.7229 45.3112C64.6898 45.3112 64.0833 45.8442 64.0833 46.61C64.0833 48.1489 66.4267 47.691 66.4267 48.6144C66.4267 49.0122 66.1197 49.2299 65.4609 49.2299C64.9668 49.2299 64.4352 49.0798 64.1432 48.9071L64.0684 49.5903C64.3753 49.7554 64.8994 49.8756 65.4385 49.8756C66.5764 49.8756 67.1679 49.3651 67.1679 48.5468C67.1679 47.0078 64.832 47.4433 64.832 46.5499C64.832 46.1746 65.154 45.9569 65.7379 45.9569C66.1123 45.9569 66.5914 46.0544 66.8385 46.1971L66.9807 45.5515Z" fill="#373F51"/>
<path d="M72.955 45.3638H70.125V49.823H72.9924V49.1698H70.8512V47.8937H72.5507V47.2556H70.8512V46.0169H72.8951L72.955 45.3638Z" fill="#373F51"/>
<path fill-rule="evenodd" clip-rule="evenodd" d="M25.0664 12.0831C26.0235 11.8704 26.6474 13.7643 39.299 9.99811C52.2818 6.13337 53.8835 5.86991 52.7801 5.81885C51.2758 5.74919 50.3987 5.55784 46.6705 2.87955C42.6911 0.0208395 42.1518 1.34383 38.4638 4.73941C33.2778 9.51442 32.4001 4.51576 28.0271 6.9841C17.4224 12.9699 13.6123 11.3528 13.6123 11.3528C25.6841 10.1733 26.9113 4.08069 31.3433 5.05735C35.2219 5.912 35.4561 5.98181 39.3301 2.10011C45.0189 -3.60019 47.1413 4.00809 52.4435 4.93957C53.171 5.0673 53.708 5.14348 54.1521 5.16159C55.3987 5.21281 55.9123 4.80792 57.849 3.81038C63.8469 0.721161 66.2933 6.80563 75.9422 10.2239C80.3128 11.7723 86.1033 11.4271 81.5951 11.6782C75.9036 11.995 66.4849 6.50008 65.2362 5.77154C59.121 2.20386 58.2543 6.17285 53.4796 6.94544C51.8883 7.20302 53.7794 7.32896 53.8138 7.33124C55.4553 7.4407 57.6904 8.02862 59.0989 8.62503C60.1122 9.05407 60.5972 9.55863 60.5972 9.55863C60.5972 9.55863 57.272 7.3345 51.1747 7.79208C45.9027 8.18784 28.1643 14.2875 25.0664 12.0831Z" fill="#079AAE"/>
</g>
<defs>
<clipPath id="clip0_349_131">
<rect width="97" height="50" fill="white"/>
</clipPath>
</defs>
</svg>
