<svg width="129" height="66" viewBox="0 0 129 66" fill="none" xmlns="http://www.w3.org/2000/svg">
<g clip-path="url(#clip0_349_287)">
<path d="M16.3943 42.8849C16.3943 37.4461 12.8673 34.2832 8.44905 34.2832C6.55004 34.2832 4.96095 34.8232 3.64323 35.8261V34.476L0 34.6303V58.6612H3.64323V51.0623C4.72834 51.5638 6.04619 51.7953 7.63513 51.7953C12.7511 51.7953 16.3943 48.0537 16.3943 42.8849ZM12.5961 42.962C12.5961 46.5107 10.2319 48.6708 7.05385 48.6708C5.77485 48.6708 4.49585 48.4008 3.64323 48.015V38.6419C4.68961 37.8319 6.04619 37.4076 7.44137 37.4076C10.5419 37.4076 12.5961 39.4905 12.5961 42.962Z" fill="white"/>
<path d="M29.4166 34.476C29.1452 34.3603 28.6027 34.2832 28.1376 34.2832C26.316 34.2832 24.5332 35.1318 23.0992 36.7518V34.476L19.4561 34.6303V51.5252H23.0992V39.6834C24.3006 38.4491 25.8897 37.6391 27.5562 37.6391C28.1376 37.6391 28.9127 37.7933 29.3003 37.9475L29.4166 34.476Z" fill="white"/>
<path d="M44.1826 27.1859L39.7256 27.0703L36.6637 32.5476H39.648L44.1826 27.1859ZM45.8104 51.5254V40.6479C45.8104 36.212 43.1362 34.2834 38.369 34.2834C36.0436 34.2834 33.8732 34.7463 32.3617 35.5563L32.5168 38.7964C33.7569 38.0249 35.8498 37.4463 37.904 37.4463C40.8107 37.4463 42.2834 38.4493 42.2834 40.8792V42.4608C41.2758 41.9979 39.3768 41.6507 37.749 41.6507C33.6019 41.6507 30.9277 43.3865 30.9277 46.8195C30.9277 49.9439 33.0206 51.7954 36.8188 51.7954C39.0278 51.7954 41.0046 51.0625 42.361 50.0981V51.5254H45.8104ZM42.2834 47.9767C41.3145 48.7096 39.5318 49.3267 37.9427 49.3267C35.8886 49.3267 34.5708 48.5938 34.5708 46.7809C34.5708 44.8137 36.0436 44.0037 38.524 44.0037C39.8417 44.0037 41.3145 44.2736 42.2834 44.7751V47.9767Z" fill="white"/>
<path d="M65.1895 27.0703L61.5851 27.2632V35.0162C60.4999 34.5147 59.0271 34.2834 57.6318 34.2834C52.3996 34.2834 48.834 37.9092 48.834 43.1937C48.834 48.5939 52.4385 51.7954 56.7792 51.7954C58.5621 51.7954 60.2286 51.294 61.5851 50.291V51.5254H65.1895V27.0703ZM61.5851 38.102V47.4367C60.4612 48.2853 59.1434 48.6709 57.6707 48.6709C54.6863 48.6709 52.5934 46.5881 52.5934 43.1165C52.5934 39.5678 54.9189 37.4077 58.1357 37.4077C59.3372 37.4077 60.7324 37.7163 61.5851 38.102Z" fill="white"/>
<path d="M83.9478 43.8878C84.0641 43.1549 84.1028 42.2292 84.1028 41.5735C84.1028 37.099 80.9635 34.2832 76.6228 34.2832C71.8556 34.2832 68.29 37.7162 68.29 42.8849C68.29 48.3622 72.0106 51.7953 78.173 51.7953C80.2272 51.7953 82.785 51.2166 84.1028 50.2523L83.9478 47.0507C82.5913 48.015 80.3433 48.6322 78.4056 48.6322C74.8011 48.6322 72.4757 46.8193 72.0882 43.8878H83.9478ZM76.6228 36.9447C79.0645 36.9447 80.6923 38.6419 80.6923 41.072C80.6923 41.2649 80.6923 41.5348 80.6534 41.6891H71.9719C72.2432 38.7962 74.0648 36.9447 76.6228 36.9447Z" fill="white"/>
<path d="M91.1958 27.0703L87.5527 27.2632V51.5254H91.1958V27.0703Z" fill="white"/>
<path d="M110.844 51.5252V40.3391C110.844 36.1346 108.519 34.2832 104.876 34.2832C102.899 34.2832 100.962 34.9004 99.1011 36.2889V34.476L95.458 34.6303V51.5252H99.1011V39.0662C100.496 38.1405 102.163 37.4848 103.674 37.4848C105.922 37.4848 107.201 38.6033 107.201 41.1106V51.5252H110.844Z" fill="white"/>
<path d="M128.79 51.5252V40.6477C128.79 36.2119 126.116 34.2832 121.349 34.2832C119.023 34.2832 116.853 34.7461 115.341 35.5561L115.496 38.7962C116.736 38.0248 118.829 37.4461 120.884 37.4461C123.79 37.4461 125.263 38.4491 125.263 40.8791V42.4606C124.255 41.9977 122.356 41.6506 120.728 41.6506C116.581 41.6506 113.907 43.3864 113.907 46.8193C113.907 49.9437 116 51.7953 119.798 51.7953C122.007 51.7953 123.984 51.0623 125.341 50.098V51.5252H128.79ZM125.263 47.9765C124.294 48.7094 122.511 49.3265 120.922 49.3265C118.868 49.3265 117.55 48.5937 117.55 46.7808C117.55 44.8136 119.023 44.0036 121.504 44.0036C122.821 44.0036 124.294 44.2735 125.263 44.7749V47.9765Z" fill="white"/>
<path d="M36.5159 59.8799H35.4008L33.7181 61.8122C33.3597 62.2383 32.9813 62.7338 32.7224 63.0806H32.6826V59.8799H31.7168V65.766H32.6826V64.1013L33.4592 63.2391L35.4207 65.766H36.6055L34.1562 62.5653L36.5159 59.8799Z" fill="white"/>
<path d="M44.6509 61.7726C44.6509 60.5537 43.7548 59.8799 42.3111 59.8799H40.3994V65.766H41.3652V63.6256H42.4306L43.8942 65.766H45.0293L43.3864 63.3977C44.1133 63.1995 44.6509 62.6248 44.6509 61.7726ZM43.6752 61.7726C43.6752 62.5455 43.0877 62.8626 42.2613 62.8626H41.3652V60.6825H42.2613C43.0877 60.6825 43.6752 61.0095 43.6752 61.7726Z" fill="white"/>
<path d="M53.6018 59.8799H52.4867L50.804 61.8122C50.4456 62.2383 50.0672 62.7338 49.8084 63.0806H49.7685V59.8799H48.8027V65.766H49.7685V64.1013L50.5451 63.2391L52.5066 65.766H53.6914L51.2421 62.5653L53.6018 59.8799Z" fill="white"/>
<path d="M59.7245 59.8105C57.9522 59.8105 56.6777 61.0889 56.6777 62.823C56.6777 64.5571 57.9522 65.8354 59.7245 65.8354C61.5067 65.8354 62.7812 64.5571 62.7812 62.823C62.7812 61.0889 61.5067 59.8105 59.7245 59.8105ZM59.7245 64.9733C58.5197 64.9733 57.6834 64.0419 57.6834 62.823C57.6834 61.5843 58.5197 60.6727 59.7245 60.6727C60.9392 60.6727 61.7756 61.6041 61.7756 62.823C61.7756 64.0617 60.9392 64.9733 59.7245 64.9733Z" fill="white"/>
<path d="M71.633 59.8799H70.6971V64.1409H70.6573C70.5477 63.9427 70.3984 63.7148 70.2291 63.4869L67.6304 59.8799H66.6846V65.766H67.6105V61.3663H67.6504C67.7599 61.5645 67.9092 61.8023 68.0785 62.0302L70.7767 65.766H71.633V59.8799Z" fill="white"/>
<path d="M78.5731 59.8105C76.8008 59.8105 75.5264 61.0889 75.5264 62.823C75.5264 64.5571 76.8008 65.8354 78.5731 65.8354C80.3554 65.8354 81.6298 64.5571 81.6298 62.823C81.6298 61.0889 80.3554 59.8105 78.5731 59.8105ZM78.5731 64.9733C77.3683 64.9733 76.532 64.0419 76.532 62.823C76.532 61.5843 77.3683 60.6727 78.5731 60.6727C79.7878 60.6727 80.6242 61.6041 80.6242 62.823C80.6242 64.0617 79.7878 64.9733 78.5731 64.9733Z" fill="white"/>
<path d="M88.5595 58.6611H87.8327L87.3149 59.2061L86.7972 58.6611H86.0703L86.6478 59.4836H87.982L88.5595 58.6611ZM89.0772 60.1277C88.669 59.9196 88.0019 59.8106 87.4045 59.8106C86.0305 59.8106 85.224 60.5142 85.224 61.5249C85.224 63.5563 88.3405 62.9519 88.3405 64.1707C88.3405 64.6959 87.9322 64.9833 87.056 64.9833C86.3989 64.9833 85.692 64.7851 85.3037 64.5572L85.2041 65.4589C85.6123 65.6769 86.3093 65.8355 87.0262 65.8355C88.5396 65.8355 89.3261 65.1616 89.3261 64.0815C89.3261 62.0501 86.2197 62.6249 86.2197 61.4456C86.2197 60.9502 86.6478 60.6628 87.4244 60.6628C87.9223 60.6628 88.5595 60.7916 88.8881 60.9799L89.0772 60.1277Z" fill="white"/>
<path d="M97.0224 59.8799H93.2588V65.766H97.0722V64.9039H94.2246V63.2193H96.4847V62.377H94.2246V60.742H96.9428L97.0224 59.8799Z" fill="white"/>
<path fill-rule="evenodd" clip-rule="evenodd" d="M33.3362 15.9497C34.6092 15.6689 35.4388 18.1689 52.2642 13.1975C69.5299 8.09604 71.6601 7.74828 70.1927 7.68088C68.1921 7.58893 67.0257 7.33635 62.0675 3.80101C56.7754 0.0275081 56.058 1.77386 51.1535 6.25602C44.2567 12.559 43.0893 5.9608 37.2737 9.21901C23.1705 17.1202 18.1035 14.9856 18.1035 14.9856C34.1577 13.4288 35.7897 5.38651 41.6839 6.67571C46.8421 7.80384 47.1535 7.896 52.3055 2.77214C59.8711 -4.75225 62.6936 5.29068 69.745 6.52023C70.7124 6.68884 71.4267 6.7894 72.0173 6.8133C73.6752 6.88091 74.3582 6.34646 76.9338 5.0297C84.9103 0.951932 88.1638 8.98343 100.996 13.4955C106.808 15.5395 114.509 15.0838 108.514 15.4152C100.944 15.8334 88.4186 8.58011 86.7579 7.61843C78.6254 2.9091 77.4727 8.14816 71.123 9.16797C69.0066 9.50799 71.5215 9.67422 71.5674 9.67723C73.7504 9.82172 76.7228 10.5978 78.596 11.385C79.9436 11.9514 80.5885 12.6174 80.5885 12.6174C80.5885 12.6174 76.1664 9.68154 68.0576 10.2855C61.0464 10.8079 37.4562 18.8595 33.3362 15.9497Z" fill="white"/>
</g>
<defs>
<clipPath id="clip0_349_287">
<rect width="129" height="66" fill="white"/>
</clipPath>
</defs>
</svg>
